# xmcd
#
# Track frame offsets: 
#        150
#        21350
#        38927
#        55685
#        78050
#        95273
#        118531
#        136001
#        153089
#        171952
#
# Disc length: 2555 seconds
#
# Revision: 0
# Processed by: cddbd v1.5.2PL0 Copyright (c) Steve Scherf et al.
# Submitted via: ExactAudioCopyFreeDBPlugin 1.0
#
DISCID=6c09f90a
DTITLE=รวมศิลปิน - รวมฮิต ซูซู and วงกะท้อน Disc 4
DYEAR=1900
DGENRE=
TTITLE0=ญี่ปุ่น ยุ่นปี่
TTITLE1=บุหงาอันดามัน
TTITLE2=สาวนากุ้ง
TTITLE3=ไทยใหญ่
TTITLE4=กองทัพงูเห่า
TTITLE5=แม่ย่านาง
TTITLE6=ร็อคแอด์ลาว
TTITLE7=อ้ายโจ
TTITLE8=ม่ายสงคราม
TTITLE9=บทเพลงขลุ่ยอันดามัน
EXTD=
EXTT0=
EXTT1=
EXTT2=
EXTT3=
EXTT4=
EXTT5=
EXTT6=
EXTT7=
EXTT8=
EXTT9=
PLAYORDER=
